/* XPM */
static char *_fb4167e3a044dd480a36eb05533ebfc5aileFC66TrhN1Zf[] = {
/* columns rows colors chars-per-pixel */
"32 32 196 2 ",
"   c None",
".  c #00776E",
"X  c #007971",
"o  c #007972",
"O  c #007C74",
"+  c #007D75",
"@  c #007E76",
"#  c #007E78",
"$  c #007F79",
"%  c #008078",
"&  c #00807A",
"*  c #00817A",
"=  c #00817B",
"-  c #00827B",
";  c #00827C",
":  c #00837C",
">  c #00837D",
",  c #00847D",
"<  c #00847E",
"1  c #00857E",
"2  c #00857F",
"3  c #00867F",
"4  c #008680",
"5  c #008780",
"6  c #008781",
"7  c #008881",
"8  c #008882",
"9  c #008983",
"0  c #008A84",
"q  c #008B85",
"w  c #008C85",
"e  c #008C86",
"r  c #008D87",
"t  c #008E88",
"y  c #008E89",
"u  c #008F89",
"i  c #008F8A",
"p  c #00908A",
"a  c #00908B",
"s  c #00918B",
"d  c #00918C",
"f  c #00928C",
"g  c #00928D",
"h  c #00938D",
"j  c #00938E",
"k  c #00948E",
"l  c #00948F",
"z  c #00958F",
"x  c #009590",
"c  c #009690",
"v  c #009791",
"b  c #009792",
"n  c #009893",
"m  c #009994",
"M  c #009A94",
"N  c #009A95",
"B  c #009B95",
"V  c #009B96",
"C  c #009C96",
"Z  c #009C97",
"A  c #009D98",
"S  c #009E99",
"D  c #009E9A",
"F  c #00A09B",
"G  c #00A19C",
"H  c #00A29D",
"J  c #00A29E",
"K  c #00A39E",
"L  c #00A39F",
"P  c #00A5A0",
"I  c #00A5A1",
"U  c #00A9A3",
"Y  c #00A9A4",
"T  c #00AAA4",
"R  c #00AAA5",
"E  c #01AAA5",
"W  c #06ABA6",
"Q  c #0CACA7",
"!  c #10ADA7",
"~  c #1EADA8",
"^  c #21AEA9",
"/  c #25AEA9",
"(  c #2CAFAA",
")  c #2EB0AB",
"_  c #33B1AC",
"`  c #38B1AD",
"'  c #3BB3AE",
"]  c #3EB3AF",
"[  c #44B5B1",
"{  c #47B5B1",
"}  c #4DB6B3",
"|  c #4CB7B3",
" . c #4EB7B3",
".. c #52B8B4",
"X. c #52B8B5",
"o. c #56B9B6",
"O. c #59BAB7",
"+. c #58BBB7",
"@. c #5EBCB9",
"#. c #5FBDB9",
"$. c #64BEBB",
"%. c #65BFBC",
"&. c #69C0BC",
"*. c #6BC0BD",
"=. c #6AC1BD",
"-. c #6CC0BD",
";. c #6CC1BE",
":. c #6DC2BE",
">. c #74C3C0",
",. c #76C3C0",
"<. c #78C5C2",
"1. c #7CC7C4",
"2. c #7DC8C5",
"3. c #80C9C6",
"4. c #83CAC7",
"5. c #84CAC8",
"6. c #8ACCCA",
"7. c #8ECECB",
"8. c #90CFCC",
"9. c #95D0CE",
"0. c #9CD4D1",
"q. c #9FD5D3",
"w. c #A1D6D4",
"e. c #A4D7D5",
"r. c #A5D8D6",
"t. c #A7D8D6",
"y. c #A8D9D7",
"u. c #ACDAD8",
"i. c #ADDBD9",
"p. c #AEDBD9",
"a. c #AFDCDA",
"s. c #B2DDDB",
"d. c #B5DFDD",
"f. c #B7DFDE",
"g. c #B8E0DE",
"h. c #BAE1DF",
"j. c #BCE1E0",
"k. c #BFE3E1",
"l. c #C7E6E5",
"z. c #C8E7E5",
"x. c #C8E7E6",
"c. c #C9E7E6",
"v. c #CAE8E6",
"b. c #CAE8E7",
"n. c #CCE8E7",
"m. c #CDE9E8",
"M. c #CEE9E8",
"N. c #CEEAE9",
"B. c #CFEAE9",
"V. c #D0EBE9",
"C. c #D0EBEA",
"Z. c #D4ECEB",
"A. c #D6EDEC",
"S. c #D7EEED",
"D. c #D9EEED",
"F. c #D8EFEE",
"G. c #DCEFEE",
"H. c #DEEFEE",
"J. c #DDF0EF",
"K. c #DEF0EF",
"L. c #DFF1F0",
"P. c #E1F1F0",
"I. c #E2F1F1",
"U. c #E2F2F1",
"Y. c #E3F2F1",
"T. c #E2F2F2",
"R. c #E3F2F2",
"E. c #E4F3F2",
"W. c #E6F3F3",
"Q. c #E7F3F3",
"!. c #E5F4F3",
"~. c #E7F4F3",
"^. c #E7F4F4",
"/. c #E8F4F4",
"(. c #E8F5F4",
"). c #E9F5F4",
"_. c #EAF5F5",
"`. c #EAF6F5",
"'. c #EBF6F5",
"]. c #EBF6F6",
"[. c #EDF6F6",
"{. c #ECF7F6",
"}. c #EEF7F7",
"|. c #EFF8F7",
" X c #F1F9F8",
".X c #F1F9F9",
"XX c #F2F9F9",
"oX c #F3FAF9",
"OX c #F3FAFA",
"+X c #F5FAFA",
"@X c #F7FBFB",
"#X c #F8FCFC",
"$X c #FAFDFD",
"%X c #FCFDFD",
"&X c #FEFFFF",
"*X c white",
/* pixels */
"                                                                ",
"    2 2 2 2 2 2 2 2 2 2 2 2 2 2 2 2 2 2 2 2 2 2 2 2 2 2 2 2     ",
"  2 9 9 9 9 9 9 9 9 9 9 9 9 9 6 9 9 9 9 9 9 9 9 9 9 9 9 9 9 2   ",
"  2 9 9 9 9 9 9 9 9 9 9 9 9 6 6 p 2 6 9 9 9 9 9 9 9 9 9 9 9 2   ",
"<.2 9 9 9 9 9 9 9 9 9 9 6 * z j./.i.e * 6 9 9 9 9 9 9 9 9 9 2   ",
"  2 9 9 9 9 9 9 9 9 9 2 B n p.f.C n.9.U G 2 9 9 9 9 9 9 9 9 2   ",
"  2 9 9 9 9 9 9 9 9 2 *.}.~.&X( . +.&XG.}.%.2 9 9 9 9 9 9 9 2   ",
"  2 9 9 9 9 9 9 9 6 z  XU h ).[ @ :.C.> ! }.u 6 9 9 9 9 9 9 2   ",
"  2 9 9 9 9 9 9 2 2 C U.u * m.| O >.i.@ B W.x 6 9 9 9 9 9 9 2   ",
"  2 9 9 9 9 9 2 L v.G.Q.p 2 C.| O >.s.$ A W.h 6 9 9 9 9 9 9 2   ",
"  2 9 9 9 9 9 e U.>.*.}.e > m.| o %.i.o A W.h 6 9 9 9 9 9 9 2   ",
"  2 9 9 9 9 6 x Q.G +.&Xo.p b.' 0 y.K.I G W.h 6 9 9 9 9 9 9 2   ",
"  2 9 9 9 9 6 p |.+Xc.e.C./.+Xm./.M.s.G./.Q.p 6 9 9 9 9 9 9 2   ",
"  2 9 9 9 9 > `  XW > > 6 R L.l.G 6 > > :.$XB > 9 9 9 9 9 9 2   ",
"  2 9 9 9 9 6 A.#.@ 9 9 6 > p 9 > > 9 X.h.&Xm.p 2 9 9 9 9 9 2   ",
"  2 9 9 9 6 z /.n 6 9 9 9 9 9 6 > A A.A.%.A y.U.p 2 9 9 9 9 2   ",
"  2 9 9 9 6 z ~.B 6 9 9 9 9 6 6 B  X5.9 * 2 2 p.B.9 9 9 9 9 2   ",
"  2 9 9 9 9 6 Z.X.> 9 9 9 9 6 9 b.6.@ > 2 9 2 9 D.4.> 9 9 9 2   ",
"  2 9 9 9 9 * #.D.6 6 6 9 9 6 x &XR x R ~ 6 9 > G  Xn 2 9 9 2   ",
"  2 9 9 9 9 9 p &X3.> 9 9 9 9 9 8.U.G.Q.&XQ * 9 2 v.$.> 9 9 2   ",
"  2 9 9 9 9 2 z /.&X#.* 6 9 9 6 2 u h f.U.Q.x 9 * 7.0.* 9 9 2   ",
"  2 9 9 9 9 9 z G.{  X1.> 6 9 9 > 9 f.C.u 5.L 2 % g.5.* 9 9 2   ",
"  2 9 9 9 9 9 x /.h B U.g.x * * A D.j.e 2 2 6 * ] #XB 6 9 9 2   ",
"  2 9 9 9 9 9 9 Q.U @ u y./.O.<. X5.9 6 9 6 * { &X_ > 9 9 9 2   ",
"  2 9 9 9 9 9 > w.a.* 6 > ( K.b.L * 9 9 2 2 :.$X/ * 9 9 9 9 2   ",
"  2 9 9 9 9 9 2 x @X| $ 6 * 9 6 > 6 9 2 e w./.L * 9 9 9 9 9 2   ",
"  2 9 9 9 9 9 9 2 ^ $X<.h u u u p p e G A.c.z * 9 9 9 9 9 9 2   ",
"  2 9 9 9 9 9 9 9 > G c./.U.U.W.U.Q.P.|.1.9 2 9 9 9 9 9 9 9 2   ",
"  2 9 9 9 9 9 9 9 9 2 6 B G F F A A G B 2 6 9 9 9 9 9 9 9 9 2   ",
"  2 9 9 9 9 9 9 9 9 9 6 6 2 2 2 6 6 2 6 9 9 9 9 9 9 9 9 9 9 2   ",
"    2 2 2 2 2 2 2 2 2 2 2 2 2 2 2 2 2 2 2 2 2 2 2 2 2 2 2 2     ",
"                                                                "
};
