<?xml version="1.0" encoding="UTF-8"?>
<!DOCTYPE svg PUBLIC "-//W3C//DTD SVG 1.1//EN" "http://www.w3.org/Graphics/SVG/1.1/DTD/svg11.dtd">
<!-- Creator: CorelDRAW 2020 (64-Bit) -->
<svg xmlns="http://www.w3.org/2000/svg" xml:space="preserve" width="67.7333mm" height="67.7333mm" version="1.1" style="shape-rendering:geometricPrecision; text-rendering:geometricPrecision; image-rendering:optimizeQuality; fill-rule:evenodd; clip-rule:evenodd"
viewBox="0 0 6773.32 6773.32"
 xmlns:xlink="http://www.w3.org/1999/xlink"
 xmlns:xodm="http://www.corel.com/coreldraw/odm/2003">
 <defs>
  <style type="text/css">
   <![CDATA[
    .fil0 {fill:#008983}
    .fil1 {fill:white}
   ]]>
  </style>
 </defs>
 <g id="Слой_x0020_1">
  <metadata id="CorelCorpID_0Corel-Layer"/>
  <rect class="fil0" x="-0" y="-0" width="6773.32" height="6773.32" rx="846.67" ry="846.67"/>
  <path class="fil1" d="M4659.47 4371.14c38.42,48.89 29.94,119.7 -18.95,158.13 -48.88,38.42 -119.69,29.94 -158.13,-18.95 -51.95,-65.96 -100.17,-131.22 -144.6,-195.73 -138.49,166.39 -290.72,318.19 -456.69,455.36 -207.07,171.16 -435.84,320.45 -686.24,447.8 -37.5,19.07 -80.63,15.16 -113.38,-6.5 -522.84,-291.6 -893.55,-589.97 -1143.57,-877.14l0 326.57c0,4.1 -0.23,8.16 -0.66,12.16 -4.5,234.6 96.21,463.67 243.18,642.25 158.8,192.95 367.57,324.28 551.37,336.51l1.64 -0.02 1306.72 0c208.7,-140.15 407.38,-288.01 595.99,-443.53 197.24,-162.64 384.86,-334.76 562.8,-516.31 10.28,-10.5 20.11,-21.56 29.45,-33.13 103.74,-128.52 132.97,-309.54 75.01,-521.35 -63,-230.14 -226.46,-493.67 -505.53,-766.94 -64.29,-62.95 -134.8,-126.4 -211.69,-190.06 -216.65,32.9 -404.34,97.27 -563.05,193.11 -165.94,100.2 -300.55,235.43 -403.76,405.64 -22.52,47.04 -34.56,85.46 -36.06,115.2 -0.95,18.95 3.38,32.57 12.99,40.79 20.04,17.15 57.59,28.85 112.62,35.09 123.18,13.94 307.07,-5.16 551.57,-57.3 45.46,-11.32 94.42,6.86 121.04,47.2l1.34 2.06 0.15 0.25 1.36 2.22 0.08 0.14 1.37 2.37 0 0.02c36.48,65.08 77.54,131.38 123.21,198.85 45.76,67.62 95.92,136.05 150.42,205.24zm-2743.41 -1486.82c-2.72,3.15 -5.6,6.14 -8.64,8.97 -27.27,28.89 -51.93,60.34 -73.58,94.12 -78.35,122.22 -117.76,276.13 -99.61,451.96 15.38,148.88 70.9,312.45 176.77,485.61 7.12,8.36 13.05,17.77 17.5,27.96 207.19,324.2 590.82,680.66 1217.12,1036.48 215.22,-113.76 412.53,-244.78 591.89,-393.02 160.34,-132.52 306.18,-278.31 437.52,-437.3 -205.24,36.98 -368.84,48.56 -490.76,34.75 -100.98,-11.44 -179.06,-40.77 -234.2,-87.95 -65.58,-56.12 -96.05,-130.21 -91.39,-222.25 3.12,-61.79 23.14,-130.61 60,-206.43l0.08 0.04c1.44,-3 3.03,-5.94 4.77,-8.85 123.23,-205.17 284.36,-367.84 483.32,-487.98 154.08,-93.05 330.67,-160.22 529.76,-201.52 -5.56,-7.53 -11.18,-14.89 -16.91,-22.12l-1.75 -2.2c-4.54,-4.68 -8.67,-9.75 -12.35,-15.15 -112.78,-135.07 -255.15,-217.17 -412.98,-243.86 -168.61,-28.51 -356.88,4.96 -548.44,103.23 -76.3,39.14 -153.12,88.52 -229.42,148.3 -23.36,21.05 -53.61,30.66 -83.27,28.55l-0.17 0.02 -1.89 0.16 -0.17 0.02 -0.18 0.01 -0.04 0 -0.31 0.03 -0.17 0.01 -0.69 0.04 -0.17 0.01 -0.7 0.05 -0.17 0.01 -0.18 0.01 -0.17 0.01 -0.17 0.01 -0.15 0.01 -0.02 0 -0.18 0.01 -0.17 0.01 -0.18 0 -0.18 0.01 -0.17 0.01 -0.17 0.01 -0.35 0.01 -0.17 0.01 -0.35 0.01 -0.18 0 -0.17 0 -0.18 0.01 -0.18 0 -0.17 0.01 -0.07 0 -0.11 0 -0.17 0.01 -0.17 0 -0.35 0.01 -0.18 0 -0.52 0.01 -0.19 0 -0.17 0 -0.35 0.01 -0.17 0 -0.18 0 -0.17 0 -0.18 0 -2.88 -0.04 -0.1 0 -2.17 -0.08 -1.32 -0.07 -0.25 -0.01 -1.96 -0.13 -0.26 -0.02 -2.2 -0.19 -0.39 -0.04 -1.81 -0.2 -1.03 -0.12 -0.36 -0.05 -2.44 -0.35 -0.52 -0.08 -2.15 -0.36 -0.12 -0.02 -2.02 -0.38 -0.75 -0.15 -1.38 -0.29 -1.36 -0.31 -0.11 -0.03 -2 -0.48 -0.6 -0.14 -0.13 -0.04 -2.08 -0.56 -0.48 -0.14 -1.58 -0.46 -0.36 -0.11 -1.39 -0.43 -0.31 -0.1 -1.65 -0.54 -0.37 -0.13 -2.02 -0.71 -0.22 -0.08 -2.5 -0.95 -0.16 -0.07 -1.97 -0.8 -0.49 -0.2 -0.59 -0.25 -1.93 -0.85 -0.01 -0.01 -1.92 -0.88 -0.55 -0.27 -1.35 -0.67 -1.09 -0.55 -0.79 -0.41 -1.63 -0.86 -0.23 -0.12 -1.84 -1.03 -0.3 -0.18 -1.52 -0.89 -0.15 -0.09 -1.43 -0.87 -0.21 -0.13 -1.34 -0.84 -2.19 -1.44 -0.08 -0.06 -1.65 -1.13 -0.59 -0.42 -1.11 -0.8 -1.07 -0.79 -0.61 -0.46 -1.54 -1.19 -0.12 -0.09 -1.63 -1.31 -0.36 -0.3 -1.25 -1.05 -0.23 -0.19 -1.3 -1.14 -0.05 -0.03 -1.27 -1.14 -0.29 -0.26 -1.53 -1.43 -0.16 -0.15 -1.34 -1.3c-1,-0.98 -1.96,-1.99 -2.92,-3l-1.4 -1.5 -0.02 -0.03 -1.39 -1.56 -1.36 -1.57 -0.02 -0.04 -1.27 -1.53 -0.13 -0.15c-7.44,-9.19 -13.47,-19.59 -17.75,-30.82 -278.7,-232.62 -597.2,-273.51 -848.11,-180.51 -95.5,35.4 -181.19,90.28 -250.79,161.27zm-198.22 -116.83l0 -439.82c0,-8.77 1,-17.32 2.9,-25.53 15.54,-98.78 65.34,-185.12 136.31,-247.44 73.65,-64.68 169.81,-103.47 273.8,-103.47 67.06,0 130.86,16.13 187.48,44.95l0 -315.95c0,-8.68 0.98,-17.13 2.84,-25.24 16.93,-110.05 72.27,-206.24 151.22,-275.59 81.58,-71.65 188.11,-114.59 303.33,-114.59 84.02,0 163.4,22.83 231.88,62.97l0 -16.16c0,-8.68 0.98,-17.12 2.83,-25.24 16.94,-110.04 72.27,-206.23 151.23,-275.58 81.58,-71.65 188.11,-114.6 303.33,-114.6 115.22,0 221.76,42.95 303.33,114.6 81.52,71.58 137.85,171.77 152.75,286.29 0.31,2.36 0.55,4.73 0.71,7.08 68.6,-40.37 148.21,-63.34 232.48,-63.34 115.21,0 221.75,42.95 303.33,114.6 81.52,71.58 137.84,171.77 152.74,286.29 0.64,4.88 0.95,9.75 0.95,14.54l0.38 0 0 1181.77c34.81,46.25 67.01,96.65 96.27,151.11 90.07,73.55 172.55,147.32 247.65,220.86 308.6,302.19 491.48,601.25 564.55,868.23 78.08,285.31 33.15,536.05 -116.43,721.34 -13.79,17.09 -28.61,33.72 -44.42,49.86 -182.47,186.19 -375.96,363.58 -580.41,532.17 -204.59,168.7 -418.88,327.57 -642.82,476.57 -19.15,12.67 -40.75,18.7 -62.11,18.7l0 0.23 -1340.5 0c-5.18,0 -10.26,-0.35 -15.26,-1.02 -245.86,-16.35 -514.78,-179.49 -711.3,-418.27 -178.39,-216.75 -300.42,-498.18 -294.29,-790.4l-0.21 -6.73 0 -633.11c-120.49,-199.94 -183.87,-390.64 -201.91,-565.31 -23.73,-229.69 29.23,-433.03 133.96,-596.43 22.23,-34.68 46.78,-67.49 73.41,-98.34zm600.49 -433.88c-7.73,-43.84 -30.13,-82.07 -61.68,-109.77 -33.52,-29.43 -77.68,-47.08 -125.8,-47.08 -48.12,0 -92.3,17.65 -125.8,47.08 -31.55,27.7 -53.96,65.92 -61.69,109.77l0 246.94c46.24,-27 95.07,-50.07 145.96,-68.93 72.66,-26.93 149.54,-45.27 229.01,-54.16l0 -123.85zm689.27 -647.67c-9.25,-54.9 -37.12,-102.78 -76.53,-137.39 -41.44,-36.4 -95.97,-58.22 -155.35,-58.22 -59.35,0 -113.9,21.82 -155.33,58.22 -39.41,34.61 -67.28,82.49 -76.53,137.39l0 641.73 0 130.03c154.15,17.28 312.19,69.93 463.74,163.53l0 -935.29zm1378.53 932.83l0 -956.8c-9.25,-54.91 -37.12,-102.79 -76.53,-137.4 -41.44,-36.4 -95.97,-58.21 -155.34,-58.21 -59.36,0 -113.91,21.81 -155.34,58.21 -39.41,34.61 -67.28,82.49 -76.53,137.4l0 799.94c36.23,1.82 72.01,5.71 107.22,11.66 128.33,21.69 248.58,70.35 356.52,145.2zm-689.27 -142.21l0 -820.3 0 -0.41 0 -0.41 0 -338.1c-9.24,-54.91 -37.11,-102.78 -76.53,-137.4 -41.43,-36.39 -95.97,-58.22 -155.34,-58.22 -59.35,0 -113.91,21.83 -155.33,58.22 -39.42,34.62 -67.29,82.49 -76.53,137.4l0 362.89 0 980.24c36.23,-22.47 72.54,-43.01 108.86,-61.63 119.17,-61.13 238.36,-101.74 354.87,-122.28z"/>
 </g>
</svg>
