/* XPM */
static char *_9ec559ef5fd4f77999287c16e3ce53cJuBAmLdHeLRgONMh[] = {
/* columns rows colors chars-per-pixel */
"16 16 117 2 ",
"   c None",
".  c #007B74",
"X  c #007D75",
"o  c #007E76",
"O  c #007F79",
"+  c #008178",
"@  c #00807A",
"#  c #00817B",
"$  c #00827B",
"%  c #00827C",
"&  c #00837C",
"*  c #00837D",
"=  c #00847D",
"-  c #00847E",
";  c #00857E",
":  c #00857F",
">  c #008680",
",  c #008780",
"<  c #008781",
"1  c #008881",
"2  c #008882",
"3  c #008982",
"4  c #008983",
"5  c #008A84",
"6  c #008C86",
"7  c #008D87",
"8  c #008E89",
"9  c #008F89",
"0  c #008F8A",
"q  c #00908A",
"w  c #00918C",
"e  c #00928C",
"r  c #00938E",
"t  c #00948E",
"y  c #009590",
"u  c #009691",
"i  c #009892",
"p  c #009893",
"a  c #009993",
"s  c #009894",
"d  c #009994",
"f  c #009A95",
"g  c #009B96",
"h  c #009E99",
"j  c #00A09A",
"k  c #00A09B",
"l  c #00A09C",
"z  c #00A19C",
"x  c #00A19D",
"c  c #00A29D",
"v  c #00A39E",
"b  c #00A5A0",
"n  c #00A7A1",
"m  c #00A7A2",
"M  c #00A8A2",
"N  c #00A9A3",
"B  c #00A9A4",
"V  c #01AAA5",
"C  c #0CACA6",
"Z  c #0CACA7",
"A  c #11ABA6",
"S  c #18ADA7",
"D  c #18ADA8",
"F  c #21AEA9",
"G  c #25AEA9",
"H  c #27AFAA",
"J  c #2AB0AB",
"K  c #2EB0AB",
"L  c #2FB1AC",
"P  c #33B1AC",
"I  c #39B3AE",
"U  c #3EB3AF",
"Y  c #4AB6B2",
"T  c #4EB7B3",
"R  c #52B8B5",
"E  c #58BBB7",
"W  c #58BBB8",
"Q  c #5EBCB8",
"!  c #5EBCB9",
"~  c #62BEBA",
"^  c #62BEBB",
"/  c #63BFBB",
"(  c #64BEBB",
")  c #65BFBB",
"_  c #67C0BC",
"`  c #69C0BD",
"'  c #6BC0BD",
"]  c #6FC2C0",
"[  c #70C3C0",
"{  c #71C4C0",
"}  c #73C4C0",
"|  c #73C4C1",
" . c #77C6C3",
".. c #7CC7C4",
"X. c #7DC8C5",
"o. c #83CAC7",
"O. c #84CAC7",
"+. c #87CBC9",
"@. c #88CCC9",
"#. c #89CDCA",
"$. c #8BCDCA",
"%. c #8DCDCB",
"&. c #8FCFCC",
"*. c #91D0CD",
"=. c #94D1CE",
"-. c #96D1CF",
";. c #97D2D0",
":. c #9BD3D1",
">. c #A0D6D4",
",. c #A1D6D4",
"<. c #A8D9D7",
"1. c #A9D9D7",
"2. c #B2DDDB",
"3. c #BAE1DF",
"4. c #C0E4E2",
"5. c #C4E5E4",
"6. c #CDE9E8",
/* pixels */
"  z z v z v v k k v z v v v k   ",
"z * < < < : : 4 q @ : : : < @ D ",
"z : 4 4 4 4 s  .=.J t 4 4 4 : H ",
"v < 4 4 @ K :.%.v 1.o.q 4 4 : H ",
"v < 4 < n <.s ) N V E g : 4 : H ",
"z < 4 r >.3.I { R { ' i 4 4 : H ",
"v < < h 2.K { 4.Q U 6.i : 3 = H ",
"v < * ~ z O : 7 7 _ #.#.7 : : H ",
"v : : ~ k : 4 4 +.k . N X.< : J ",
"v < : z &.: : r *.' ) X ' z @ H ",
"v < < t 5._ 4 O t >.:.7 L P @ H ",
"v : 4 i ' N #.S #.N . g *.q * H ",
"v : 4 4 +.i t Y 9 X N =.u : : H ",
"v < 4 : t #.Q T E } ..7 : 5 : H ",
"k @ : : : : s s s i @ : : : + C ",
"  S H H J F C A A C H H H H C   "
};
