/* XPM */
static char *e9a6a212d3e14b34cbacf6bd52b2bfd8fyNrnwqsr0pZVQAa[] = {
/* columns rows colors chars-per-pixel */
"64 64 129 2 ",
"   c None",
".  c #007D75",
"X  c #007F79",
"o  c #00837D",
"O  c #008781",
"+  c #008983",
"@  c #008E89",
"#  c #00928D",
"$  c #009691",
"%  c #009A95",
"&  c #009F9A",
"*  c #00A29D",
"=  c #00A5A0",
"-  c #02AAA4",
";  c #15ACA7",
":  c #1BACA7",
">  c #1BADA8",
",  c #24AEA9",
"<  c #2CAFAA",
"1  c #2FB1AC",
"2  c #33B1AC",
"3  c #3CB2AE",
"4  c #45B4B1",
"5  c #4DB6B3",
"6  c #51B7B4",
"7  c #54B9B5",
"8  c #59BBB7",
"9  c #5DBCB8",
"0  c #64BEBB",
"q  c #69BFBC",
"w  c #6CC1BE",
"e  c #75C4C1",
"r  c #7CC7C4",
"t  c #7EC8C5",
"y  c #82C9C7",
"u  c #85CBC8",
"i  c #8ACDCA",
"p  c #90CFCC",
"a  c #96D1CF",
"s  c #98D2CF",
"d  c #97D2D0",
"f  c #9BD3D1",
"g  c #A3D6D4",
"h  c #A7D8D6",
"j  c #A8D8D6",
"k  c #ADDBD9",
"l  c #B4DEDC",
"z  c #BAE1DF",
"x  c #BCE1E0",
"c  c #C3E5E4",
"v  c #C8E7E5",
"b  c #CCE8E7",
"n  c #CAE8E6",
"m  c #CDE9E8",
"M  c #CEE9E8",
"N  c #CEE9E9",
"B  c #CFEAE9",
"V  c #CEE9E8",
"C  c #D1EAE9",
"Z  c #D1EBE9",
"A  c #D0EBEA",
"S  c #D1EBEA",
"D  c #D3EBEA",
"F  c #D2ECEB",
"G  c #D4ECEB",
"H  c #D5ECEB",
"J  c #D5EDEC",
"K  c #D5EDEC",
"L  c #D9EEED",
"P  c #DAEFEE",
"I  c #DBEFEE",
"U  c #DDEFEF",
"Y  c #DAEEEE",
"T  c #DEF0EF",
"R  c #DDF0EF",
"E  c #DFF1F0",
"W  c #E0F0F0",
"Q  c #E1F1F0",
"!  c #E3F2F1",
"~  c #E3F2F2",
"^  c #E4F3F2",
"/  c #E6F3F3",
"(  c #E7F3F3",
")  c #E7F4F3",
"_  c #E3F2F1",
"`  c #E8F4F4",
"'  c #E9F4F4",
"]  c #E8F5F4",
"[  c #E9F5F4",
"{  c #EAF5F5",
"}  c #EAF6F5",
"|  c #EBF6F5",
" . c #EBF6F6",
".. c #EDF6F6",
"X. c #ECF7F6",
"o. c #EEF7F6",
"O. c #EFF7F7",
"+. c #EAF5F5",
"@. c #EFF8F7",
"#. c #EFF8F8",
"$. c #F0F8F8",
"%. c #F1F8F8",
"&. c #F0F9F8",
"*. c #F1F9F8",
"=. c #F1F9F9",
"-. c #F2F9F9",
";. c #F3FAF9",
":. c #F3FAFA",
">. c #F4F9F9",
",. c #F5FAFA",
"<. c #F4FBFA",
"1. c #F6FBFA",
"2. c #F6FBFB",
"3. c #F7FBFB",
"4. c #F3F9F9",
"5. c #F8FCFB",
"6. c #F8FCFC",
"7. c #F9FCFC",
"8. c #F9FDFC",
"9. c #F9FCFD",
"0. c #FAFDFD",
"q. c #FBFEFD",
"w. c #FCFDFD",
"e. c #FDFEFE",
"r. c #FEFEFE",
"t. c #FEFFFE",
"y. c #FEFFFF",
"u. c white",
"i. c #FFFFFF",
/* pixels */
"                                                                                                                                ",
"            & & & & & * & & & & * * & & & & & & & & & * & * & & & & & & & & & * & * & & & & & & & * & & & & & & & &             ",
"        o O O o O o O o O o o O o o o o o O o O o O o o O o o O o O o O o O o o o O o o o O o O O o o O o O O o O o O o         ",
"      + + + + + + + + + + + + + + + + + + + + + + + + + + + + + + + + + + + + + + + + + + + + + + + + + + + + + + + + + +       ",
"    O + + + + + + + + + + + + + + + + + + + + + + + + + + + + + + + + + + + + + + + + + + + + + + + + + + + + + + + + + + o     ",
"    o + + + + + + + + + + + + + + + + + + + + + + + + + + + + + + + + + + + + + + + + + + + + + + + + + + + + + + + + + + o     ",
"  & o + + + + + + + + + + + + + + + + + + + + + + + + + + + + + O O + + + + + + + + + + + + + + + + + + + + + + + + + + + o     ",
"  & O + + + + + + + + + + + + + + + + + + + + + + + + + + + o O # @ o O + + + + + + + + + + + + + + + + + + + + + + + + + o 5   ",
"  & O + + + + + + + + + + + + + + + + + + + + + + + + + + o = l ` Q s % o + + + + + + + + + + + + + + + + + + + + + + + + o 5   ",
"  * o + + + + + + + + + + + + + + + + + + + + + + + + O o 5 e.e.e.e.e.o.* o + + + + + + + + + + + + + + + + + + + + + + + o 5   ",
"  & o + + + + + + + + + + + + + + + + + + + + + o o o o % 2.e.l - 2 J e.C O X o o o + + + + + + + + + + + + + + + + O + + o 5   ",
"  & o + + + + + + + + + + + + + + + + + + + + o # , 4 % q e.C + o X % ;.e.4 0 f e & o + + + + + + + + + + + + + + + + + + o 5   ",
"  & o + + + + + + + + + + + + + + + + + + + o 9 ] e.e.e.*.e.h o + + O H e.e.e.e.e.0.w o + + + + + + + + + + + + + + O + + o 5   ",
"  & O + + + + + + + + + + + + + + + + + + o 6 e.e.Q b e.e.e.j o + + + H e.e.C p n e.e.2 o + + + + + + + + + + + + + + + + o 5   ",
"  & o + + + + + + + + + + + + + + + + + + @ ( e.s + o - *.e.j o + + + H e.l + o o g e.c + + + + + + + + + + + + + + + + + o 5   ",
"  & O + + + + + + + + + + + + + + + + + o * e.2.# o + o s e.j o + + + P e.1 o + o = e.o.# O + + + + + + + + + + + + + + + o 5   ",
"  & O + + + + + + + + + + + + + + + + + o = e.` @ O + o u e.j o + + @ J e., o + o = e.o.# O + + + + + + + + + + + + + + + o 5   ",
"  * o + + + + + + + + + + + + + + O o o X & e.] # + + o i e.j o + + + J e., o + o = e.] # O + + + + + + + + + + + + + + + o 5   ",
"  & o + + + + + + + + + + + + + o @ 9 l k i e.] # o O o u e.j o + O + J e., o + o = e.o.# O + + + + + + + + + + + + + + + o 5   ",
"  & O + + + + + + + + + + + + O @ c e.e.e.e.e.' # O + o i e.j o + + + J e., o + o = e.] # + + + + + + + + + + + + + + + + o 5   ",
"  & o + + + + + + + + + + + + o a e.;.y u ;.e.' # o + o i e.j o + + + J e., o + O = e.o.# + + + + + + + + + + + + + O + + o 5   ",
"  & O + + + + + + + + + + + O # ' e.4 . . 7 e.( # O + o i e.j o + O + J e., o + o = e.] # O + + + + + + + + + + + + + + + o 5   ",
"  & O + + + + + + + + + + + O $ ;.e.& X . & e.] @ X o o u e.j o + o o G e.; . o o * e.o.# O + + + + + + + + + + + + + + + o 5   ",
"  & o + + + + + + + + + + + O # #.e.* = i M e.e.z t * X y e.h . + = e *.e.C s 6 @ * e.] # O + + + + + + + + + + + + + + + o 5   ",
"  & O + + + + + + + + + + + O # o.e.P e.e.e.e.e.e.e.e.l l e.j , b e.e.e.e.e.e.e.( f e.o.# O + + + + + + + + + + + + + + + o 5   ",
"  & o + + + + + + + + + + + O # o.e.e.0.k 8 2 3 w z e.e.e.e.0.e.e.0.z e 5 7 a Q e.e.e.] # O + + + + + + + + + + + + + + + o 5   ",
"  & O + + + + + + + + + + + o , 6.e.x % o o o o o o * l e.e.e.q.i % o o o o o @ w e.e.o.# O + + + + + + + + + + + + + + O o 5   ",
"  * o + + + + + + + + + + O @ Q e.z + o + + + + + + o o t e.C * o o + + O + + o . , 2.e.8 X + + + + + + + + + + + + + + + o 6   ",
"  & O + + + + + + + + + + o 9 e.] # o + + + + + + + + O + * # o + + + + + o o # 1 u @.e.>.* o O + + + + + + + + + + + + + o 5   ",
"  & o + + + + + + + + + + o c e.r o + + + + + + + + + + + o o + + + + + o # y Q e.e.e.e.e.1.2 o + + + + + + + + O + + + + o 5   ",
"  & o + + + + + + + + + O # ] e.= o + + + + + + + + + + + + + + + + + o 7 ] e.e.' g 7 * c e.e.4 o + + + + + + + + + + + + o 5   ",
"  & O + + + + + + + + + O $ 2.e.% O + + + + + + + + + + + + + + + O + f e.e.P 7 # o o o + l e.w.3 o + + + + + + + + + + + o 5   ",
"  & o + + + + + + + + + O $ 2.e.% o + + + + + + + + + + + + + + O O j e.e.i @ X o + + + + + k e.7.* o + + + + + + + + + + o 5   ",
"  & O + + + + + + + + + O @ Q e.; o + + + + + + + + + + + + + + o u e.e.7 o O + + + + + + o @ c e.( # o + + + + + + + + + o 5   ",
"  & O + + + + + + + + + + O z e.r o + + + + + + + + + + + + + o - e.e.w o O + + + + + + + + o # Q e.k o + + + + + + + + + o 5   ",
"  & o + + + + + + + + + + o 9 e.T + + + + + + + + + + + + + + O c e.k o O + + + + + + + + + + o - e.e.2 o + + + + + + + + o 5   ",
"  & o + + + + + + + + + + o $ O.e.4 o + + + + + + + + + + + o % 0.7.% o o o o o o o + + + + + + o f e.H + + + + + + O + + o 5   ",
"  & O + + + + + + + + + + + o u e.Q # o + + + + + + + + + + O & e.3.8 % & * 4 y l w o @ + + + + o % 2.e., o + + + + + + + o 5   ",
"  & o + + + + O + + + + + + O $ 2.e.s o o + + + + + + + + + + + z e.e.e.e.e.e.e.e.e.= o + + + + + o f e.h o + + + + + + + o 5   ",
"  & O + + + + + + + + + + + O $ *.e.e.7 o + + + + + + + + + + o # i P O.;.) c C e.e.M + o + + + + o 2 e.Q @ O + + + + + + o 5   ",
"  & O + + + + + + + + + + + O $ *.e.e.0., o O + + + + + + + + + O o @ # # + $ Z e.e.e.u o + + + + O % 0.3.% O + + + + + + o 5   ",
"  * o + + + + + + + + + + + O $ 2.3.M e.3., o + + + + + + + + + + + + o o # M e.E y e.e.1 o + + + o # >.e.& o + + + + + + o 5   ",
"  & o + + + + + + + + + + + O $ ;.e.& l e.3.4 o O + + + + + + + + + + o # M e.;.& o j e.g o + + + o & e.3.$ o + + + + + + o 5   ",
"  & O + + + + + + + + + + + O $ ;.e.% O l e.e.r + o + + + + + + + + o % R e.;.= o o # 8 % + + + + o w e.G + + + + + + + + o 5   ",
"  & o + + + + + + + + + + + O $ 2.e.% o + s e.e.z $ o O + + + + + o 2 *.e.' * o + + O o o + + + o % o.e.w o + + + + O + + o 5   ",
"  & O + + + + + + + + + + + O # ;.e.& o O o 0 e.e.] 3 o o + + o @ i e.e.Z % o + + + + + + + + o % T e.G @ O + + + + + + + o 5   ",
"  & O + + + + + + + + + + + + @ Q e., o + + o = J e.e.j % o o ; H e.e.g @ o + + + + + + + + o % Q e.Q % o + + + + + + + + o 5   ",
"  & o + + + + + + + + + + + + o k e.i o + + + o @ a e.e.O.e h e.e.o.6 o O + + + + + + + + o * ' e.Q % o + + + + + + + + + o 5   ",
"  & O + + + + + + + + + + + + o 4 e.' # o + + + o o = B e.e.e.e.g $ o + + + + + + + + + o < 2.e.P % o + + + + + + + + + + o 5   ",
"  & o + + + + + + + + + + + + O @ ( e.y o + + + + + o @ q Q c = o o O + + + + + + + O o 0 e.e.v # o + + + + + + + + + + + o 5   ",
"  & O + + + + + + + + + + + + + o 8 e.0.* o + + + + + o o @ + o + + + + + + + + + o + a e.e.k @ o + + + + + + + + + + + + o 5   ",
"  * o + + + + + + + + + + + + + + + x e.) % o + + + + + + O + + + + + + + + + + o % c e.e.u + o + + + + + + + + + + + + + o 5   ",
"  & O + + + + + + + + + + + + + + o # T e.' - o o + + + + o O O + + + + + + o o 3 o.e.2.5 o o + + + + + + + + + + + O + + o 5   ",
"  & o + + + + + + + + + + + + + + + o % P e.e.f * # + @ @ @ @ @ @ + + @ @ + # d e.e.C * o + + + + + + + + + + + + + + + + o 5   ",
"  & o + + + + + + + + + + + + + + + + o # j e.e.e.( I T T T T T T E E U E U o.e.e.s @ o + + + + + + + + + + + + + + + + + o 5   ",
"  & O + + + + + + + + + + + + + + + + + + o < z 7.e.e.e.e.e.e.e.e.e.e.e.e.e.e.' 3 o o + + + + + + + + + + + + + + + + + + o 5   ",
"  & O + + + + + + + + + + + + + + + + + O + o O % - : : : : : : > : : : : : : $ o O + + + + + + + + + + + + + + + + + + + o 5   ",
"  & o + + + + + + + + + + + + + + + + + + + + O O o o o o o o o o o o o o o o O + + + + + + + + + + + + + + + + + + + + + o     ",
"    o + + + + + + + + + + + + + + + + + + + + + + + + + O + + + + + + + + + + + + + + + + + + + + + O + + + + + + + + + + o     ",
"    o + + + + + + + + + + + + + + + + + + + + + + + + + + + + + + + + + + + + + + + + + + + + + + + + + + + + + + + + + +       ",
"      + + + + O + O + + + O + + + + + O + O + + + O + + + + + O + O + + + O + + + + + O + O + + + O + + + + + O + + + + +       ",
"        o o o o o o o o o o o o o o o o o o o o o o o o o o o o o o o o o o o o o o o o o o o o o o o o o o o o o o o           ",
"              5 5 5 5 5 5 5 5 5 5 5 5 5 5 5 5 5 5 5 6 5 5 5 5 5 5 5 5 5 5 5 5 5 5 5 5 5 5 5 5 5 5 5 5 5 5 5 5 5                 ",
"                                                                                                                                "
};
